<svg width="200" height="33" viewBox="0 0 200 33" fill="none" xmlns="http://www.w3.org/2000/svg">
<path d="M0.7345 32.432L1.1665 28.016C2.3505 27.824 3.1665 27.44 3.6145 26.864C4.0625 26.256 4.2865 25.28 4.2865 23.936V7.76C4.2865 6.768 4.1905 6.096 3.9985 5.744C3.8385 5.36 3.5185 5.168 3.0385 5.168C2.6865 5.168 2.3185 5.184 1.9345 5.216C1.5505 5.248 1.3585 5.264 1.3585 5.264L0.8785 4.688L1.3585 0.943999C2.1265 0.943999 2.8785 0.943999 3.6145 0.943999C4.3825 0.943999 5.1505 0.943999 5.9185 0.943999C6.6865 0.943999 7.4545 0.943999 8.2225 0.943999C8.7665 0.943999 9.5025 0.927999 10.4305 0.896C11.3905 0.863998 12.3665 0.831998 13.3585 0.799998C14.3505 0.767999 15.1825 0.735999 15.8545 0.704C16.5265 0.671998 16.8625 0.655997 16.8625 0.655997C19.7425 0.655997 22.0465 0.991998 23.7745 1.664C25.5025 2.336 26.7985 3.2 27.6625 4.256C28.5585 5.28 29.1505 6.368 29.4385 7.52C29.7265 8.672 29.8705 9.712 29.8705 10.64C29.8705 12.176 29.5505 13.632 28.9105 15.008C28.2705 16.352 27.3905 17.552 26.2705 18.608C25.1505 19.664 23.8705 20.496 22.4305 21.104C20.9905 21.712 19.4705 22.016 17.8705 22.016H13.7425V24.32C13.7425 25.184 13.8065 25.872 13.9345 26.384C14.0625 26.896 14.3025 27.264 14.6545 27.488C15.0065 27.68 15.5025 27.776 16.1425 27.776C16.4945 27.776 16.8465 27.76 17.1985 27.728C17.5505 27.696 17.7265 27.68 17.7265 27.68L17.9665 28.064L17.4865 32.192C17.4865 32.192 17.1825 32.176 16.5745 32.144C15.9665 32.144 15.2145 32.128 14.3185 32.096C13.4545 32.064 12.5905 32.032 11.7265 32C10.8625 32 10.1745 32 9.6625 32C9.1185 32 8.3505 32.016 7.3585 32.048C6.3985 32.112 5.4065 32.16 4.3825 32.192C3.3585 32.256 2.4945 32.304 1.7905 32.336C1.0865 32.4 0.7345 32.432 0.7345 32.432ZM17.1505 16.592C19.0385 15.92 19.9825 14.096 19.9825 11.12C19.9825 9.552 19.5825 8.416 18.7825 7.712C17.9825 7.008 16.7345 6.656 15.0385 6.656C14.7185 6.656 14.5105 6.72 14.4145 6.848C14.3185 6.976 14.2545 7.264 14.2225 7.712C14.1585 8.928 14.0945 10.256 14.0305 11.696C13.9665 13.136 13.9025 14.608 13.8385 16.112L17.1505 16.592ZM43.1024 32.288L42.7184 31.856L43.0064 27.824C43.9984 27.696 44.7024 27.6 45.1184 27.536C45.5344 27.44 45.7904 27.296 45.8864 27.104C46.0144 26.912 46.0784 26.608 46.0784 26.192C46.0784 26.096 46.0624 25.984 46.0304 25.856C46.0304 25.696 46.0144 25.52 45.9824 25.328L45.6944 23.456C45.0544 23.424 44.3824 23.408 43.6784 23.408C43.0064 23.376 42.4464 23.36 41.9984 23.36C41.4544 23.36 40.8304 23.392 40.1264 23.456C39.4544 23.488 38.7984 23.536 38.1584 23.6L37.6784 25.712C37.5824 26.224 37.5344 26.576 37.5344 26.768C37.5344 27.184 37.6144 27.456 37.7744 27.584C37.9664 27.68 38.3824 27.728 39.0224 27.728H40.2704L40.6544 28.208L40.2704 32.192C40.2704 32.192 39.8544 32.176 39.0224 32.144C38.1904 32.112 37.1984 32.08 36.0464 32.048C34.9264 32.048 33.8704 32.048 32.8784 32.048C31.8864 32.048 30.8944 32.048 29.9024 32.048C28.9424 32.048 28.1264 32.048 27.4544 32.048C26.8144 32.08 26.4944 32.096 26.4944 32.096L26.8304 27.92C27.4064 27.76 27.9024 27.472 28.3184 27.056C28.7344 26.608 29.0544 26.016 29.2784 25.28L36.9104 1.184L49.5344 0.415998L50.2544 0.991999C50.2544 0.991999 50.3664 1.456 50.5904 2.384C50.8144 3.28 51.1184 4.48 51.5024 5.984C51.8864 7.456 52.3024 9.088 52.7504 10.88C53.1984 12.672 53.6464 14.464 54.0944 16.256C54.5424 18.016 54.9584 19.648 55.3424 21.152C55.7264 22.624 56.0304 23.792 56.2544 24.656C56.5424 25.744 56.8944 26.544 57.3104 27.056C57.7584 27.536 58.3504 27.808 59.0864 27.872L59.4224 28.352L59.0384 32.144C59.0384 32.144 58.6544 32.128 57.8864 32.096C57.1184 32.096 56.2064 32.08 55.1504 32.048C54.1264 32.048 53.1664 32.048 52.2704 32.048C50.7664 32.048 49.3104 32.064 47.9024 32.096C46.4944 32.128 45.3424 32.16 44.4464 32.192C43.5504 32.256 43.1024 32.288 43.1024 32.288ZM39.6944 17.552H42.1424C42.4944 17.552 42.8944 17.552 43.3424 17.552C43.7904 17.52 44.2224 17.488 44.6384 17.456L43.0064 9.056H41.9504L39.6944 17.552ZM69.8279 32.576C67.9719 32.576 66.3239 32.4 64.8839 32.048C63.4759 31.696 62.3719 31.36 61.5719 31.04C60.7719 30.688 60.3719 30.512 60.3719 30.512L59.7959 29.648C59.7959 29.648 59.8439 29.392 59.9399 28.88C60.0359 28.368 60.1319 27.712 60.2279 26.912C60.3559 26.08 60.4679 25.216 60.5639 24.32C60.6919 23.392 60.7719 22.528 60.8039 21.728L66.8519 21.296C66.8519 22.448 67.0119 23.392 67.3319 24.128C67.6519 24.832 68.1319 25.36 68.7719 25.712C69.4119 26.032 70.1799 26.192 71.0759 26.192C72.0679 26.192 72.8359 26.016 73.3799 25.664C73.9559 25.312 74.2439 24.832 74.2439 24.224C74.2439 23.52 73.9079 22.928 73.2359 22.448C72.5959 21.936 71.7479 21.456 70.6919 21.008C69.6359 20.56 68.5319 20.08 67.3799 19.568C66.1639 19.024 64.9959 18.384 63.8759 17.648C62.7559 16.88 61.8279 15.936 61.0919 14.816C60.3879 13.696 60.0359 12.304 60.0359 10.64C60.0359 8.56 60.6439 6.752 61.8599 5.216C63.1079 3.68 64.8359 2.496 67.0439 1.664C69.2519 0.799998 71.8439 0.367998 74.8199 0.367998C76.5799 0.367998 78.1479 0.479999 79.5239 0.704C80.8999 0.927999 81.9879 1.152 82.7879 1.376C83.5879 1.6 83.9879 1.712 83.9879 1.712L84.5639 2.768C84.5639 2.768 84.4839 3.168 84.3239 3.968C84.1639 4.736 83.9719 5.76 83.7479 7.04C83.5559 8.32 83.3959 9.68 83.2679 11.12L77.6999 11.504L77.1239 11.12C77.1239 11.12 77.1239 11.024 77.1239 10.832C77.1239 10.64 77.1239 10.48 77.1239 10.352C77.1239 9.232 76.8199 8.4 76.2119 7.856C75.6039 7.28 74.7399 6.992 73.6199 6.992C72.7239 6.992 71.9879 7.2 71.4119 7.616C70.8679 8 70.5959 8.512 70.5959 9.152C70.5959 9.792 70.8839 10.352 71.4599 10.832C72.0359 11.312 72.7719 11.76 73.6679 12.176C74.5959 12.56 75.5879 12.976 76.6439 13.424C77.9559 13.968 79.2359 14.608 80.4839 15.344C81.7319 16.08 82.7719 17.024 83.6039 18.176C84.4359 19.296 84.8519 20.752 84.8519 22.544C84.8519 24.624 84.2439 26.416 83.0279 27.92C81.8119 29.424 80.0839 30.576 77.8439 31.376C75.6039 32.176 72.9319 32.576 69.8279 32.576ZM96.2654 32.576C94.4094 32.576 92.7614 32.4 91.3214 32.048C89.9134 31.696 88.8094 31.36 88.0094 31.04C87.2094 30.688 86.8094 30.512 86.8094 30.512L86.2334 29.648C86.2334 29.648 86.2814 29.392 86.3774 28.88C86.4734 28.368 86.5694 27.712 86.6654 26.912C86.7934 26.08 86.9054 25.216 87.0014 24.32C87.1294 23.392 87.2094 22.528 87.2414 21.728L93.2894 21.296C93.2894 22.448 93.4494 23.392 93.7694 24.128C94.0894 24.832 94.5694 25.36 95.2094 25.712C95.8494 26.032 96.6174 26.192 97.5134 26.192C98.5054 26.192 99.2734 26.016 99.8174 25.664C100.393 25.312 100.681 24.832 100.681 24.224C100.681 23.52 100.345 22.928 99.6734 22.448C99.0334 21.936 98.1854 21.456 97.1294 21.008C96.0734 20.56 94.9694 20.08 93.8174 19.568C92.6014 19.024 91.4334 18.384 90.3134 17.648C89.1934 16.88 88.2654 15.936 87.5294 14.816C86.8254 13.696 86.4734 12.304 86.4734 10.64C86.4734 8.56 87.0814 6.752 88.2974 5.216C89.5454 3.68 91.2734 2.496 93.4814 1.664C95.6894 0.799998 98.2814 0.367998 101.257 0.367998C103.017 0.367998 104.585 0.479999 105.961 0.704C107.337 0.927999 108.425 1.152 109.225 1.376C110.025 1.6 110.425 1.712 110.425 1.712L111.001 2.768C111.001 2.768 110.921 3.168 110.761 3.968C110.601 4.736 110.409 5.76 110.185 7.04C109.993 8.32 109.833 9.68 109.705 11.12L104.137 11.504L103.561 11.12C103.561 11.12 103.561 11.024 103.561 10.832C103.561 10.64 103.561 10.48 103.561 10.352C103.561 9.232 103.257 8.4 102.649 7.856C102.041 7.28 101.177 6.992 100.057 6.992C99.1614 6.992 98.4254 7.2 97.8494 7.616C97.3054 8 97.0334 8.512 97.0334 9.152C97.0334 9.792 97.3214 10.352 97.8974 10.832C98.4734 11.312 99.2094 11.76 100.105 12.176C101.033 12.56 102.025 12.976 103.081 13.424C104.393 13.968 105.673 14.608 106.921 15.344C108.169 16.08 109.209 17.024 110.041 18.176C110.873 19.296 111.289 20.752 111.289 22.544C111.289 24.624 110.681 26.416 109.465 27.92C108.249 29.424 106.521 30.576 104.281 31.376C102.041 32.176 99.3694 32.576 96.2654 32.576ZM119.61 32.432L120.042 28.016C121.226 27.824 122.042 27.44 122.49 26.864C122.938 26.256 123.162 25.28 123.162 23.936V7.76C123.162 6.768 123.066 6.096 122.874 5.744C122.714 5.36 122.394 5.168 121.914 5.168C121.562 5.168 121.194 5.184 120.81 5.216C120.426 5.248 120.234 5.264 120.234 5.264L119.754 4.688L120.234 0.943999C121.002 0.943999 121.754 0.943999 122.49 0.943999C123.258 0.943999 124.026 0.943999 124.794 0.943999C125.562 0.943999 126.33 0.943999 127.098 0.943999C127.642 0.943999 128.378 0.927999 129.306 0.896C130.266 0.863998 131.242 0.831998 132.234 0.799998C133.226 0.767999 134.058 0.735999 134.73 0.704C135.402 0.671998 135.738 0.655997 135.738 0.655997C138.618 0.655997 140.922 0.991998 142.65 1.664C144.378 2.336 145.674 3.2 146.538 4.256C147.434 5.28 148.026 6.368 148.314 7.52C148.602 8.672 148.746 9.712 148.746 10.64C148.746 12.176 148.426 13.632 147.786 15.008C147.146 16.352 146.266 17.552 145.146 18.608C144.026 19.664 142.746 20.496 141.306 21.104C139.866 21.712 138.346 22.016 136.746 22.016H132.618V24.32C132.618 25.184 132.682 25.872 132.81 26.384C132.938 26.896 133.178 27.264 133.53 27.488C133.882 27.68 134.378 27.776 135.018 27.776C135.37 27.776 135.722 27.76 136.074 27.728C136.426 27.696 136.602 27.68 136.602 27.68L136.842 28.064L136.362 32.192C136.362 32.192 136.058 32.176 135.45 32.144C134.842 32.144 134.09 32.128 133.194 32.096C132.33 32.064 131.466 32.032 130.602 32C129.738 32 129.05 32 128.538 32C127.994 32 127.226 32.016 126.234 32.048C125.274 32.112 124.282 32.16 123.258 32.192C122.234 32.256 121.37 32.304 120.666 32.336C119.962 32.4 119.61 32.432 119.61 32.432ZM136.026 16.592C137.914 15.92 138.858 14.096 138.858 11.12C138.858 9.552 138.458 8.416 137.658 7.712C136.858 7.008 135.61 6.656 133.914 6.656C133.594 6.656 133.386 6.72 133.29 6.848C133.194 6.976 133.13 7.264 133.098 7.712C133.034 8.928 132.97 10.256 132.906 11.696C132.842 13.136 132.778 14.608 132.714 16.112L136.026 16.592ZM148.767 32.24L149.151 28.16C150.463 27.872 151.311 27.472 151.695 26.96C152.079 26.448 152.271 25.536 152.271 24.224V7.616C152.271 6.624 152.159 5.968 151.935 5.648C151.711 5.328 151.263 5.168 150.591 5.168C150.399 5.168 150.175 5.184 149.919 5.216C149.695 5.216 149.503 5.216 149.343 5.216L148.911 4.544L149.295 0.943999C150.607 0.943999 151.903 0.943999 153.183 0.943999C154.463 0.943999 155.743 0.943999 157.023 0.943999C157.567 0.943999 158.543 0.927999 159.951 0.896C161.359 0.831999 163.135 0.767999 165.279 0.704L164.943 5.024C163.855 5.184 163.135 5.424 162.783 5.744C162.463 6.032 162.271 6.624 162.207 7.52C162.143 8.768 162.079 10.096 162.015 11.504C161.951 12.88 161.887 14.304 161.823 15.776C161.791 17.216 161.759 18.672 161.727 20.144C161.727 21.616 161.727 23.072 161.727 24.512C161.727 25.856 161.823 26.752 162.015 27.2C162.239 27.616 162.655 27.824 163.263 27.824C163.519 27.824 163.775 27.808 164.031 27.776C164.319 27.744 164.575 27.712 164.799 27.68L165.183 28.16L164.751 32.192C163.887 32.16 162.911 32.128 161.823 32.096C160.767 32.064 159.775 32.032 158.847 32C157.919 32 157.215 32 156.735 32C155.935 32 154.799 32.016 153.327 32.048C151.887 32.112 150.367 32.176 148.767 32.24ZM182.565 32.24L182.229 31.904L182.565 27.872C183.013 27.84 183.349 27.76 183.573 27.632C183.829 27.472 183.957 27.232 183.957 26.912C183.957 26.72 183.909 26.528 183.813 26.336C183.749 26.112 183.621 25.872 183.429 25.616L180.501 21.392L178.677 24.416C178.453 24.8 178.261 25.168 178.101 25.52C177.941 25.84 177.861 26.112 177.861 26.336C177.861 27.296 178.485 27.776 179.733 27.776L180.021 28.304L179.781 32.192C179.781 32.192 179.477 32.176 178.869 32.144C178.293 32.112 177.573 32.08 176.709 32.048C175.877 32.016 175.061 31.984 174.261 31.952C173.493 31.92 172.917 31.904 172.533 31.904C172.053 31.904 171.445 31.92 170.709 31.952C170.005 31.984 169.301 32.016 168.597 32.048C167.893 32.08 167.301 32.112 166.821 32.144C166.341 32.176 166.101 32.192 166.101 32.192L165.861 31.52L166.149 27.68C166.629 27.456 167.221 27.024 167.925 26.384C168.661 25.712 169.413 24.944 170.181 24.08C170.949 23.184 171.621 22.32 172.197 21.488L176.421 15.392L172.485 9.584C171.813 8.56 171.189 7.808 170.613 7.328C170.037 6.816 169.445 6.448 168.837 6.224C168.261 5.968 167.573 5.744 166.773 5.552L166.533 5.264L166.965 0.896C166.965 0.896 167.157 0.896 167.541 0.896C167.957 0.896 168.533 0.912 169.269 0.943999C170.005 0.943999 170.885 0.943999 171.909 0.943999C172.965 0.943999 174.133 0.943999 175.413 0.943999C175.957 0.943999 176.677 0.927999 177.573 0.896C178.501 0.863998 179.429 0.831998 180.357 0.799998C181.285 0.767999 182.069 0.735999 182.709 0.704C183.381 0.671998 183.717 0.655997 183.717 0.655997L184.005 1.184L183.669 5.12C183.029 5.12 182.549 5.216 182.229 5.408C181.941 5.6 181.797 5.888 181.797 6.272C181.797 6.88 182.085 7.632 182.661 8.528C183.237 9.392 183.957 10.432 184.821 11.648C185.109 11.104 185.429 10.56 185.781 10.016C186.133 9.44 186.453 8.896 186.741 8.384C187.029 7.84 187.269 7.36 187.461 6.944C187.653 6.528 187.749 6.224 187.749 6.032C187.749 5.68 187.621 5.44 187.365 5.312C187.109 5.152 186.629 5.072 185.925 5.072L185.829 4.784L186.117 0.943999C186.949 0.943999 187.781 0.943999 188.613 0.943999C189.445 0.943999 190.261 0.943999 191.061 0.943999C191.893 0.943999 192.725 0.943999 193.557 0.943999C194.485 0.943999 195.429 0.943999 196.389 0.943999C197.349 0.912 198.149 0.879999 198.789 0.847998C199.429 0.815998 199.749 0.799998 199.749 0.799998L199.941 1.184L199.701 5.36C198.677 5.84 197.797 6.32 197.061 6.8C196.357 7.28 195.733 7.824 195.189 8.432C194.645 9.008 194.101 9.728 193.557 10.592L189.045 17.552L193.221 23.408C194.245 24.816 195.205 25.856 196.101 26.528C197.029 27.168 198.069 27.504 199.221 27.536L199.413 27.728L198.981 32.048C198.981 32.048 198.725 32.032 198.213 32C197.733 32 197.125 32 196.389 32C195.685 31.968 194.965 31.952 194.229 31.952C193.525 31.92 192.949 31.904 192.501 31.904C192.053 31.904 191.429 31.92 190.629 31.952C189.829 31.952 188.965 31.968 188.037 32C187.109 32.032 186.229 32.064 185.397 32.096C184.565 32.16 183.877 32.192 183.333 32.192C182.821 32.224 182.565 32.24 182.565 32.24Z" fill="white"/>
</svg>
